<svg
  xmlns="http://www.w3.org/2000/svg"
  width="128"
  height="128"
  viewBox="0 0 128 128"
  role="img"
  aria-labelledby="title description"
>
  <title id="title">Default extension icon</title>
  <desc id="description">
    A neutral puzzle-piece icon representing a generic editor extension.
  </desc>

  <circle cx="64" cy="64" r="60" fill="#f3f4f6" />
  <circle
    cx="64"
    cy="64"
    r="59"
    fill="none"
    stroke="#c7cdd4"
    stroke-width="2"
  />

  <path
    d="
      M38 38
      H52
      C50.7 35.9 50 33.5 50 31
      C50 23.8 55.8 18 63 18
      C70.2 18 76 23.8 76 31
      C76 33.5 75.3 35.9 74 38
      H90
      C94.4 38 98 41.6 98 46
      V60
      C100.1 58.7 102.5 58 105 58
      C112.2 58 118 63.8 118 71
      C118 78.2 112.2 84 105 84
      C102.5 84 100.1 83.3 98 82
      V98
      C98 102.4 94.4 106 90 106
      H74
      C75.3 103.9 76 101.5 76 99
      C76 91.8 70.2 86 63 86
      C55.8 86 50 91.8 50 99
      C50 101.5 50.7 103.9 52 106
      H38
      C33.6 106 30 102.4 30 98
      V46
      C30 41.6 33.6 38 38 38
      Z
    "
    fill="#5f6b76"
  />

  <path
    d="M50 57L38 68L50 79"
    fill="none"
    stroke="#ffffff"
    stroke-width="7"
    stroke-linecap="round"
    stroke-linejoin="round"
  />

  <path
    d="M78 57L90 68L78 79"
    fill="none"
    stroke="#ffffff"
    stroke-width="7"
    stroke-linecap="round"
    stroke-linejoin="round"
  />

  <path
    d="M69 51L59 85"
    fill="none"
    stroke="#ffffff"
    stroke-width="7"
    stroke-linecap="round"
  />
</svg>